<svg xmlns="http://www.w3.org/2000/svg" width="62.62" height="106.71" viewBox="0 0 62.62 106.71"><defs><style>.cls-1{fill:none;stroke:#333;stroke-miterlimit:10;stroke-width:4px;}</style></defs><title>Asset 2</title><g id="Layer_2" data-name="Layer 2"><g id="Layer_1-2" data-name="Layer 1"><path class="cls-1" d="M39.8,49.59,57.12,66.91a12,12,0,0,1,0,17L39.8,101.21a12,12,0,0,1-17,0L5.5,83.88a12,12,0,0,1,0-17L22.82,49.59A12,12,0,0,1,39.8,49.59Zm-17-17.19-3.88,3.88a12,12,0,0,0,0,17l3.88,3.88a12,12,0,0,0,17,0l3.88-3.88a12,12,0,0,0,0-17L39.8,32.39A12,12,0,0,0,22.82,32.39Zm0-26.89L5.5,22.82a12,12,0,0,0,0,17L22.82,57.12a12,12,0,0,0,17,0L57.12,39.8a12,12,0,0,0,0-17L39.8,5.5A12,12,0,0,0,22.82,5.5Z"/></g></g></svg>